<svg viewBox="0 0 200 200" xmlns="http://www.w3.org/2000/svg" width="100%" height="100%" style="display:block">
  <defs>
    <linearGradient id="cp-stone" x1="0%" y1="0%" x2="0%" y2="100%">
      <stop offset="0%" stop-color="#e8dfd0"/>
      <stop offset="55%" stop-color="#a89c87"/>
      <stop offset="100%" stop-color="#5a5044"/>
    </linearGradient>
    <linearGradient id="cp-cap" x1="0%" y1="0%" x2="0%" y2="100%">
      <stop offset="0%" stop-color="#c96442"/>
      <stop offset="100%" stop-color="#c96442" stop-opacity="0.78"/>
    </linearGradient>
    <radialGradient id="cp-light" cx="38%" cy="28%" r="58%">
      <stop offset="0%" stop-color="#ffffff" stop-opacity="0.55"/>
      <stop offset="60%" stop-color="#ffffff" stop-opacity="0.08"/>
      <stop offset="100%" stop-color="#ffffff" stop-opacity="0"/>
    </radialGradient>
  </defs>

  <ellipse cx="100" cy="181" rx="84" ry="5.5" fill="#000" opacity="0.22"/>

  <path d="M 22 178 L 20 162 L 34 150 L 52 152 L 48 142 L 46 126 L 60 116 L 78 118 L 68 110 L 66 96 L 80 86 L 96 90 L 90 80 L 88 68 L 102 58 L 96 48 L 106 42 L 116 46 L 116 58 L 118 64 L 120 76 L 132 84 L 138 100 L 132 110 L 142 116 L 156 122 L 156 142 L 168 162 L 172 178 Z" fill="url(#cp-stone)"/>
  <path d="M 22 178 L 20 162 L 34 150 L 52 152 L 48 142 L 46 126 L 60 116 L 78 118 L 68 110 L 66 96 L 80 86 L 96 90 L 90 80 L 88 68 L 102 58 L 96 48 L 106 42 L 116 46 L 116 58 L 118 64 L 120 76 L 132 84 L 138 100 L 132 110 L 142 116 L 156 122 L 156 142 L 168 162 L 172 178 Z" fill="url(#cp-light)"/>

  <g stroke="#3a322a" stroke-width="1" fill="none" opacity="0.6" stroke-linecap="round" stroke-linejoin="round">
    <path d="M52 152 L60 168 L56 178"/>
    <path d="M52 158 L66 142 L92 138 L114 144 L122 158"/>
    <path d="M48 142 L46 126 L60 116 L78 118 L84 130 L80 142"/>
    <path d="M78 122 L94 108 L120 110 L132 122"/>
    <path d="M134 142 L130 126 L142 116 L156 122"/>
    <path d="M68 110 L66 96 L80 86 L96 90 L100 102"/>
    <path d="M96 92 L114 80 L132 84 L138 100"/>
    <path d="M90 80 L88 68 L102 58 L118 64 L120 76"/>
  </g>
  <g stroke="#3a322a" stroke-width="0.9" fill="none" opacity="0.45" stroke-linecap="round">
    <path d="M40 158 L36 178"/>
    <path d="M80 150 L76 178"/>
    <path d="M138 162 L132 178"/>
    <path d="M66 124 L62 142"/>
    <path d="M102 118 L98 142"/>
    <path d="M84 96 L80 110"/>
    <path d="M118 92 L114 110"/>
    <path d="M106 68 L102 80"/>
  </g>

  <g>
    <path d="M94 60 L94 58 L118 58 L118 60 Z" fill="#000" opacity="0.25"/>
    <path d="M96 58 L96 48 L106 42 L116 46 L116 58 Z" fill="url(#cp-cap)" stroke="#3a322a" stroke-width="0.8" stroke-linejoin="round" opacity="0.98"/>
    <path d="M97 49 L106 43 L114 47 L113 50 L106 46 L98 51 Z" fill="#fff" opacity="0.32"/>
  </g>
</svg>
