<?xml version="1.0" encoding="UTF-8"?>
<svg viewBox="0 0 200 200" xmlns="http://www.w3.org/2000/svg" width="100%" height="100%" data-om-id="jsx:/https:/019dd360-5725-7aa6-9bb5-42eab7e3bbd4.claudeusercontent.com/v1/design/projects/019dd360-5725-7aa6-9bb5-42eab7e3bbd4/serve/final-photoreal.jsx:1077:33:5" style="display: block;"><defs data-om-id="jsx:/https:/019dd360-5725-7aa6-9bb5-42eab7e3bbd4.claudeusercontent.com/v1/design/projects/019dd360-5725-7aa6-9bb5-42eab7e3bbd4/serve/final-photoreal.jsx:1199:34:7"><linearGradient id="p1-stone" x1="0%" y1="0%" x2="0%" y2="100%" data-om-id="jsx:/https:/019dd360-5725-7aa6-9bb5-42eab7e3bbd4.claudeusercontent.com/v1/design/projects/019dd360-5725-7aa6-9bb5-42eab7e3bbd4/serve/final-photoreal.jsx:1214:35:9"><stop offset="0%" stop-color="#e8dfd0" data-om-id="jsx:/https:/019dd360-5725-7aa6-9bb5-42eab7e3bbd4.claudeusercontent.com/v1/design/projects/019dd360-5725-7aa6-9bb5-42eab7e3bbd4/serve/final-photoreal.jsx:1287:36:11"/><stop offset="55%" stop-color="#a89c87" data-om-id="jsx:/https:/019dd360-5725-7aa6-9bb5-42eab7e3bbd4.claudeusercontent.com/v1/design/projects/019dd360-5725-7aa6-9bb5-42eab7e3bbd4/serve/final-photoreal.jsx:1338:37:11"/><stop offset="100%" stop-color="#5a5044" data-om-id="jsx:/https:/019dd360-5725-7aa6-9bb5-42eab7e3bbd4.claudeusercontent.com/v1/design/projects/019dd360-5725-7aa6-9bb5-42eab7e3bbd4/serve/final-photoreal.jsx:1390:38:11"/></linearGradient><linearGradient id="p1-cap" x1="0%" y1="0%" x2="0%" y2="100%" data-om-id="jsx:/https:/019dd360-5725-7aa6-9bb5-42eab7e3bbd4.claudeusercontent.com/v1/design/projects/019dd360-5725-7aa6-9bb5-42eab7e3bbd4/serve/final-photoreal.jsx:1467:40:9"><stop offset="0%" stop-color="#c96442" data-om-id="jsx:/https:/019dd360-5725-7aa6-9bb5-42eab7e3bbd4.claudeusercontent.com/v1/design/projects/019dd360-5725-7aa6-9bb5-42eab7e3bbd4/serve/final-photoreal.jsx:1538:41:11"/><stop offset="100%" stop-color="#c96442" stop-opacity="0.78" data-om-id="jsx:/https:/019dd360-5725-7aa6-9bb5-42eab7e3bbd4.claudeusercontent.com/v1/design/projects/019dd360-5725-7aa6-9bb5-42eab7e3bbd4/serve/final-photoreal.jsx:1587:42:11"/></linearGradient><radialGradient id="p1-light" cx="38%" cy="28%" r="58%" data-om-id="jsx:/https:/019dd360-5725-7aa6-9bb5-42eab7e3bbd4.claudeusercontent.com/v1/design/projects/019dd360-5725-7aa6-9bb5-42eab7e3bbd4/serve/final-photoreal.jsx:1681:44:9"><stop offset="0%" stop-color="#ffffff" stop-opacity="0.55" data-om-id="jsx:/https:/019dd360-5725-7aa6-9bb5-42eab7e3bbd4.claudeusercontent.com/v1/design/projects/019dd360-5725-7aa6-9bb5-42eab7e3bbd4/serve/final-photoreal.jsx:1746:45:11"/><stop offset="60%" stop-color="#ffffff" stop-opacity="0.08" data-om-id="jsx:/https:/019dd360-5725-7aa6-9bb5-42eab7e3bbd4.claudeusercontent.com/v1/design/projects/019dd360-5725-7aa6-9bb5-42eab7e3bbd4/serve/final-photoreal.jsx:1815:46:11"/><stop offset="100%" stop-color="#ffffff" stop-opacity="0" data-om-id="jsx:/https:/019dd360-5725-7aa6-9bb5-42eab7e3bbd4.claudeusercontent.com/v1/design/projects/019dd360-5725-7aa6-9bb5-42eab7e3bbd4/serve/final-photoreal.jsx:1885:47:11"/></radialGradient></defs><ellipse cx="100" cy="181" rx="84" ry="5.5" fill="#000" opacity="0.22" data-om-id="jsx:/https:/019dd360-5725-7aa6-9bb5-42eab7e3bbd4.claudeusercontent.com/v1/design/projects/019dd360-5725-7aa6-9bb5-42eab7e3bbd4/serve/final-photoreal.jsx:2115:55:9"/><path d=" M 22 178 L 20 162 L 34 150 L 52 152 L 48 142 L 46 126 L 60 116 L 78 118 L 68 110 L 66 96 L 80 86 L 96 90 L 90 80 L 88 68 L 102 58 L 96 48 L 106 42 L 116 46 L 116 58 L 118 64 L 120 76 L 132 84 L 138 100 L 132 110 L 142 116 L 156 122 L 156 142 L 168 162 L 172 178 Z " fill="url(#p1-stone)" data-om-id="jsx:/https:/019dd360-5725-7aa6-9bb5-42eab7e3bbd4.claudeusercontent.com/v1/design/projects/019dd360-5725-7aa6-9bb5-42eab7e3bbd4/serve/final-photoreal.jsx:2285:59:7"/><path d=" M 22 178 L 20 162 L 34 150 L 52 152 L 48 142 L 46 126 L 60 116 L 78 118 L 68 110 L 66 96 L 80 86 L 96 90 L 90 80 L 88 68 L 102 58 L 96 48 L 106 42 L 116 46 L 116 58 L 118 64 L 120 76 L 132 84 L 138 100 L 132 110 L 142 116 L 156 122 L 156 142 L 168 162 L 172 178 Z " fill="url(#p1-light)" data-om-id="jsx:/https:/019dd360-5725-7aa6-9bb5-42eab7e3bbd4.claudeusercontent.com/v1/design/projects/019dd360-5725-7aa6-9bb5-42eab7e3bbd4/serve/final-photoreal.jsx:2727:72:7"/><g stroke="#3a322a" stroke-width="1" fill="none" opacity="0.6" stroke-linecap="round" stroke-linejoin="round" data-om-id="jsx:/https:/019dd360-5725-7aa6-9bb5-42eab7e3bbd4.claudeusercontent.com/v1/design/projects/019dd360-5725-7aa6-9bb5-42eab7e3bbd4/serve/final-photoreal.jsx:3236:87:11"><path d="M52 152 L60 168 L56 178" data-om-id="jsx:/https:/019dd360-5725-7aa6-9bb5-42eab7e3bbd4.claudeusercontent.com/v1/design/projects/019dd360-5725-7aa6-9bb5-42eab7e3bbd4/serve/final-photoreal.jsx:3358:88:13"/><path d="M52 158 L66 142 L92 138 L114 144 L122 158" data-om-id="jsx:/https:/019dd360-5725-7aa6-9bb5-42eab7e3bbd4.claudeusercontent.com/v1/design/projects/019dd360-5725-7aa6-9bb5-42eab7e3bbd4/serve/final-photoreal.jsx:3406:89:13"/><path d="M48 142 L46 126 L60 116 L78 118 L84 130 L80 142" data-om-id="jsx:/https:/019dd360-5725-7aa6-9bb5-42eab7e3bbd4.claudeusercontent.com/v1/design/projects/019dd360-5725-7aa6-9bb5-42eab7e3bbd4/serve/final-photoreal.jsx:3472:90:13"/><path d="M78 122 L94 108 L120 110 L132 122" data-om-id="jsx:/https:/019dd360-5725-7aa6-9bb5-42eab7e3bbd4.claudeusercontent.com/v1/design/projects/019dd360-5725-7aa6-9bb5-42eab7e3bbd4/serve/final-photoreal.jsx:3544:91:13"/><path d="M134 142 L130 126 L142 116 L156 122" data-om-id="jsx:/https:/019dd360-5725-7aa6-9bb5-42eab7e3bbd4.claudeusercontent.com/v1/design/projects/019dd360-5725-7aa6-9bb5-42eab7e3bbd4/serve/final-photoreal.jsx:3602:92:13"/><path d="M68 110 L66 96 L80 86 L96 90 L100 102" data-om-id="jsx:/https:/019dd360-5725-7aa6-9bb5-42eab7e3bbd4.claudeusercontent.com/v1/design/projects/019dd360-5725-7aa6-9bb5-42eab7e3bbd4/serve/final-photoreal.jsx:3662:93:13"/><path d="M96 92 L114 80 L132 84 L138 100" data-om-id="jsx:/https:/019dd360-5725-7aa6-9bb5-42eab7e3bbd4.claudeusercontent.com/v1/design/projects/019dd360-5725-7aa6-9bb5-42eab7e3bbd4/serve/final-photoreal.jsx:3724:94:13"/><path d="M90 80 L88 68 L102 58 L118 64 L120 76" data-om-id="jsx:/https:/019dd360-5725-7aa6-9bb5-42eab7e3bbd4.claudeusercontent.com/v1/design/projects/019dd360-5725-7aa6-9bb5-42eab7e3bbd4/serve/final-photoreal.jsx:3780:95:13"/></g><g stroke="#3a322a" stroke-width="0.9" fill="none" opacity="0.45" stroke-linecap="round" data-om-id="jsx:/https:/019dd360-5725-7aa6-9bb5-42eab7e3bbd4.claudeusercontent.com/v1/design/projects/019dd360-5725-7aa6-9bb5-42eab7e3bbd4/serve/final-photoreal.jsx:3898:98:11"><path d="M40 158 L36 178" data-om-id="jsx:/https:/019dd360-5725-7aa6-9bb5-42eab7e3bbd4.claudeusercontent.com/v1/design/projects/019dd360-5725-7aa6-9bb5-42eab7e3bbd4/serve/final-photoreal.jsx:4000:99:13"/><path d="M80 150 L76 178" data-om-id="jsx:/https:/019dd360-5725-7aa6-9bb5-42eab7e3bbd4.claudeusercontent.com/v1/design/projects/019dd360-5725-7aa6-9bb5-42eab7e3bbd4/serve/final-photoreal.jsx:4040:100:13"/><path d="M138 162 L132 178" data-om-id="jsx:/https:/019dd360-5725-7aa6-9bb5-42eab7e3bbd4.claudeusercontent.com/v1/design/projects/019dd360-5725-7aa6-9bb5-42eab7e3bbd4/serve/final-photoreal.jsx:4080:101:13"/><path d="M66 124 L62 142" data-om-id="jsx:/https:/019dd360-5725-7aa6-9bb5-42eab7e3bbd4.claudeusercontent.com/v1/design/projects/019dd360-5725-7aa6-9bb5-42eab7e3bbd4/serve/final-photoreal.jsx:4122:102:13"/><path d="M102 118 L98 142" data-om-id="jsx:/https:/019dd360-5725-7aa6-9bb5-42eab7e3bbd4.claudeusercontent.com/v1/design/projects/019dd360-5725-7aa6-9bb5-42eab7e3bbd4/serve/final-photoreal.jsx:4162:103:13"/><path d="M84 96 L80 110" data-om-id="jsx:/https:/019dd360-5725-7aa6-9bb5-42eab7e3bbd4.claudeusercontent.com/v1/design/projects/019dd360-5725-7aa6-9bb5-42eab7e3bbd4/serve/final-photoreal.jsx:4203:104:13"/><path d="M118 92 L114 110" data-om-id="jsx:/https:/019dd360-5725-7aa6-9bb5-42eab7e3bbd4.claudeusercontent.com/v1/design/projects/019dd360-5725-7aa6-9bb5-42eab7e3bbd4/serve/final-photoreal.jsx:4242:105:13"/><path d="M106 68 L102 80" data-om-id="jsx:/https:/019dd360-5725-7aa6-9bb5-42eab7e3bbd4.claudeusercontent.com/v1/design/projects/019dd360-5725-7aa6-9bb5-42eab7e3bbd4/serve/final-photoreal.jsx:4283:106:13"/></g><g data-om-id="jsx:/https:/019dd360-5725-7aa6-9bb5-42eab7e3bbd4.claudeusercontent.com/v1/design/projects/019dd360-5725-7aa6-9bb5-42eab7e3bbd4/serve/final-photoreal.jsx:4418:112:7"><path d="M94 60 L94 58 L118 58 L118 60 Z" fill="#000" opacity="0.25" data-om-id="jsx:/https:/019dd360-5725-7aa6-9bb5-42eab7e3bbd4.claudeusercontent.com/v1/design/projects/019dd360-5725-7aa6-9bb5-42eab7e3bbd4/serve/final-photoreal.jsx:4491:114:9"/><path d="M96 58 L96 48 L106 42 L116 46 L116 58 Z" fill="url(#p1-cap)" stroke="#3a322a" stroke-width="0.8" stroke-linejoin="round" opacity="0.98" data-om-id="jsx:/https:/019dd360-5725-7aa6-9bb5-42eab7e3bbd4.claudeusercontent.com/v1/design/projects/019dd360-5725-7aa6-9bb5-42eab7e3bbd4/serve/final-photoreal.jsx:4606:116:9"/><path d="M97 49 L106 43 L114 47 L113 50 L106 46 L98 51 Z" fill="#fff" opacity="0.32" data-om-id="jsx:/https:/019dd360-5725-7aa6-9bb5-42eab7e3bbd4.claudeusercontent.com/v1/design/projects/019dd360-5725-7aa6-9bb5-42eab7e3bbd4/serve/final-photoreal.jsx:4834:120:9"/></g></svg>